<mxfile host="Electron" agent="Mozilla/5.0 (Windows NT 10.0; Win64; x64) AppleWebKit/537.36 (KHTML, like Gecko) draw.io/26.2.2 Chrome/134.0.6998.178 Electron/35.1.2 Safari/537.36" version="26.2.2">
  <diagram name="Страница — 1" id="ewmR-zBpoBteB9ECuaDN">
    <mxGraphModel dx="183" dy="277" grid="1" gridSize="10" guides="1" tooltips="1" connect="1" arrows="1" fold="1" page="1" pageScale="1" pageWidth="827" pageHeight="1169" math="0" shadow="0">
      <root>
        <mxCell id="0" />
        <mxCell id="1" parent="0" />
        <mxCell id="rdjJhaQHk-c43rJBHcsN-1" value="Пользователь" style="shape=umlActor;verticalLabelPosition=bottom;verticalAlign=top;html=1;outlineConnect=0;fontSize=9;" vertex="1" parent="1">
          <mxGeometry x="170" y="525" width="30" height="60" as="geometry" />
        </mxCell>
        <mxCell id="rdjJhaQHk-c43rJBHcsN-3" value="" style="rounded=0;whiteSpace=wrap;html=1;" vertex="1" parent="1">
          <mxGeometry x="230" y="400" width="160" height="360" as="geometry" />
        </mxCell>
        <mxCell id="rdjJhaQHk-c43rJBHcsN-4" value="Физическая модель (user mode)" style="rounded=0;whiteSpace=wrap;html=1;fontSize=9;" vertex="1" parent="1">
          <mxGeometry x="230" y="400" width="150" height="20" as="geometry" />
        </mxCell>
        <mxCell id="rdjJhaQHk-c43rJBHcsN-5" value="Перемместить точку притяжения" style="ellipse;whiteSpace=wrap;html=1;fontSize=5;" vertex="1" parent="1">
          <mxGeometry x="275" y="440" width="70" height="30" as="geometry" />
        </mxCell>
        <mxCell id="rdjJhaQHk-c43rJBHcsN-6" value="Изменить направление гравитации" style="ellipse;whiteSpace=wrap;html=1;fontSize=5;" vertex="1" parent="1">
          <mxGeometry x="275" y="480" width="70" height="30" as="geometry" />
        </mxCell>
        <mxCell id="rdjJhaQHk-c43rJBHcsN-7" value="Добавить частицу" style="ellipse;whiteSpace=wrap;html=1;fontSize=5;" vertex="1" parent="1">
          <mxGeometry x="275" y="520" width="70" height="30" as="geometry" />
        </mxCell>
        <mxCell id="rdjJhaQHk-c43rJBHcsN-8" value="Удалить частицу" style="ellipse;whiteSpace=wrap;html=1;fontSize=5;" vertex="1" parent="1">
          <mxGeometry x="275" y="560" width="70" height="30" as="geometry" />
        </mxCell>
        <mxCell id="rdjJhaQHk-c43rJBHcsN-9" value="Сохранить состояние модели" style="ellipse;whiteSpace=wrap;html=1;fontSize=5;" vertex="1" parent="1">
          <mxGeometry x="275" y="600" width="70" height="30" as="geometry" />
        </mxCell>
        <mxCell id="rdjJhaQHk-c43rJBHcsN-10" value="Импортировать состояние модели" style="ellipse;whiteSpace=wrap;html=1;fontSize=5;" vertex="1" parent="1">
          <mxGeometry x="275" y="640" width="70" height="30" as="geometry" />
        </mxCell>
        <mxCell id="rdjJhaQHk-c43rJBHcsN-11" value="" style="endArrow=none;html=1;rounded=0;" edge="1" parent="1">
          <mxGeometry width="50" height="50" relative="1" as="geometry">
            <mxPoint x="220" y="660" as="sourcePoint" />
            <mxPoint x="220" y="460" as="targetPoint" />
          </mxGeometry>
        </mxCell>
        <mxCell id="rdjJhaQHk-c43rJBHcsN-14" value="" style="endArrow=none;html=1;rounded=0;exitX=0;exitY=0.5;exitDx=0;exitDy=0;" edge="1" parent="1" source="rdjJhaQHk-c43rJBHcsN-5">
          <mxGeometry width="50" height="50" relative="1" as="geometry">
            <mxPoint x="275" y="455" as="sourcePoint" />
            <mxPoint x="220" y="455" as="targetPoint" />
          </mxGeometry>
        </mxCell>
        <mxCell id="rdjJhaQHk-c43rJBHcsN-15" value="" style="endArrow=none;html=1;rounded=0;" edge="1" parent="1">
          <mxGeometry width="50" height="50" relative="1" as="geometry">
            <mxPoint x="220" y="695" as="sourcePoint" />
            <mxPoint x="220" y="452.5" as="targetPoint" />
          </mxGeometry>
        </mxCell>
        <mxCell id="rdjJhaQHk-c43rJBHcsN-16" value="" style="endArrow=none;html=1;rounded=0;exitX=0;exitY=0.5;exitDx=0;exitDy=0;" edge="1" parent="1">
          <mxGeometry width="50" height="50" relative="1" as="geometry">
            <mxPoint x="275" y="494.8" as="sourcePoint" />
            <mxPoint x="220" y="494.8" as="targetPoint" />
          </mxGeometry>
        </mxCell>
        <mxCell id="rdjJhaQHk-c43rJBHcsN-17" value="" style="endArrow=none;html=1;rounded=0;exitX=0;exitY=0.5;exitDx=0;exitDy=0;" edge="1" parent="1">
          <mxGeometry width="50" height="50" relative="1" as="geometry">
            <mxPoint x="275" y="534.8" as="sourcePoint" />
            <mxPoint x="220" y="534.8" as="targetPoint" />
          </mxGeometry>
        </mxCell>
        <mxCell id="rdjJhaQHk-c43rJBHcsN-18" value="" style="endArrow=none;html=1;rounded=0;exitX=0;exitY=0.5;exitDx=0;exitDy=0;" edge="1" parent="1">
          <mxGeometry width="50" height="50" relative="1" as="geometry">
            <mxPoint x="275" y="574.8" as="sourcePoint" />
            <mxPoint x="220" y="574.8" as="targetPoint" />
          </mxGeometry>
        </mxCell>
        <mxCell id="rdjJhaQHk-c43rJBHcsN-19" value="" style="endArrow=none;html=1;rounded=0;exitX=0;exitY=0.5;exitDx=0;exitDy=0;" edge="1" parent="1">
          <mxGeometry width="50" height="50" relative="1" as="geometry">
            <mxPoint x="275" y="614.8" as="sourcePoint" />
            <mxPoint x="220" y="614.8" as="targetPoint" />
          </mxGeometry>
        </mxCell>
        <mxCell id="rdjJhaQHk-c43rJBHcsN-20" value="" style="endArrow=none;html=1;rounded=0;exitX=0;exitY=0.5;exitDx=0;exitDy=0;" edge="1" parent="1">
          <mxGeometry width="50" height="50" relative="1" as="geometry">
            <mxPoint x="275" y="654.8" as="sourcePoint" />
            <mxPoint x="220" y="654.8" as="targetPoint" />
          </mxGeometry>
        </mxCell>
        <mxCell id="rdjJhaQHk-c43rJBHcsN-21" value="Остановить симуляцию" style="ellipse;whiteSpace=wrap;html=1;fontSize=5;" vertex="1" parent="1">
          <mxGeometry x="275" y="680" width="70" height="30" as="geometry" />
        </mxCell>
        <mxCell id="rdjJhaQHk-c43rJBHcsN-22" value="Продолжить симуляцию" style="ellipse;whiteSpace=wrap;html=1;fontSize=5;" vertex="1" parent="1">
          <mxGeometry x="275" y="720" width="70" height="30" as="geometry" />
        </mxCell>
        <mxCell id="rdjJhaQHk-c43rJBHcsN-23" value="" style="endArrow=none;html=1;rounded=0;exitX=0;exitY=0.5;exitDx=0;exitDy=0;" edge="1" parent="1">
          <mxGeometry width="50" height="50" relative="1" as="geometry">
            <mxPoint x="275" y="694.8299999999999" as="sourcePoint" />
            <mxPoint x="220" y="694.8299999999999" as="targetPoint" />
          </mxGeometry>
        </mxCell>
        <mxCell id="rdjJhaQHk-c43rJBHcsN-24" value="" style="endArrow=none;dashed=1;html=1;rounded=0;entryX=1;entryY=0.5;entryDx=0;entryDy=0;exitX=1.017;exitY=0.501;exitDx=0;exitDy=0;exitPerimeter=0;startArrow=block;startFill=1;" edge="1" parent="1" source="rdjJhaQHk-c43rJBHcsN-22" target="rdjJhaQHk-c43rJBHcsN-21">
          <mxGeometry width="50" height="50" relative="1" as="geometry">
            <mxPoint x="359" y="735" as="sourcePoint" />
            <mxPoint x="340" y="690" as="targetPoint" />
            <Array as="points">
              <mxPoint x="370" y="735" />
              <mxPoint x="370" y="695" />
            </Array>
          </mxGeometry>
        </mxCell>
        <mxCell id="rdjJhaQHk-c43rJBHcsN-25" value="&amp;lt;&amp;lt;extend&amp;gt;&amp;gt;" style="text;html=1;align=center;verticalAlign=middle;resizable=0;points=[];autosize=1;strokeColor=none;fillColor=none;fontSize=6;" vertex="1" parent="1">
          <mxGeometry x="330" y="680" width="60" height="20" as="geometry" />
        </mxCell>
      </root>
    </mxGraphModel>
  </diagram>
</mxfile>
